<svg width="6" height="4" viewBox="0 0 6 4" fill="none" xmlns="http://www.w3.org/2000/svg">
<path d="M5.83164 0.445252C5.725 0.343024 5.58074 0.285645 5.43037 0.285645C5.28 0.285645 5.13575 0.343024 5.0291 0.445252L2.98577 2.38825L0.970895 0.445252C0.864254 0.343024 0.719996 0.285645 0.569628 0.285645C0.41926 0.285645 0.275002 0.343024 0.168361 0.445252C0.115013 0.496277 0.0726695 0.556982 0.0437733 0.623867C0.0148771 0.690752 0 0.762493 0 0.83495C0 0.907408 0.0148771 0.979148 0.0437733 1.04603C0.0726695 1.11292 0.115013 1.17362 0.168361 1.22465L2.58166 3.55186C2.63457 3.60331 2.69752 3.64414 2.76688 3.672C2.83624 3.69987 2.91063 3.71422 2.98577 3.71422C3.06091 3.71422 3.1353 3.69987 3.20466 3.672C3.27402 3.64414 3.33697 3.60331 3.38988 3.55186L5.83164 1.22465C5.88499 1.17362 5.92733 1.11292 5.95623 1.04603C5.98512 0.979148 6 0.907408 6 0.83495C6 0.762493 5.98512 0.690752 5.95623 0.623867C5.92733 0.556982 5.88499 0.496277 5.83164 0.445252Z" fill="white"/>
</svg>
