<svg width="24" height="24" viewBox="0 0 24 24" fill="none" xmlns="http://www.w3.org/2000/svg">
<mask id="mask0_238_37487" style="mask-type:alpha" maskUnits="userSpaceOnUse" x="0" y="0" width="24" height="24">
<rect x="0.848511" y="0.848572" width="22.303" height="22.303" rx="4" fill="#D9D9D9"/>
</mask>
<g mask="url(#mask0_238_37487)">
<path d="M11.795 17.2362C11.6208 17.2362 11.4756 17.1781 11.3594 17.0619C11.2433 16.9458 11.1852 16.8006 11.1852 16.6263V13.9715C11.1852 13.0727 10.8825 12.2001 10.3259 11.4944L7.28217 7.63542C7.15439 7.44956 7.13697 7.26068 7.2299 7.06878C7.32283 6.87735 7.47964 6.78163 7.70035 6.78163H16.761C16.9817 6.78163 17.1385 6.87735 17.2314 7.06878C17.3243 7.26068 17.3069 7.44956 17.1791 7.63542L14.1354 11.4944C13.5788 12.2001 13.2761 13.0727 13.2761 13.9715V16.6263C13.2761 16.8006 13.218 16.9458 13.1019 17.0619C12.9857 17.1781 12.8405 17.2362 12.6663 17.2362H11.795Z" fill="#929596"/>
</g>
</svg>
