<svg width="237" height="85" viewBox="0 0 237 85" fill="none" xmlns="http://www.w3.org/2000/svg">
<path d="M70.0899 24.226C70.0948 24.1949 70.0925 24.1631 70.0831 24.133C70.0737 24.103 70.0574 24.0755 70.0357 24.0527C70.0139 24.03 69.9872 24.0126 69.9575 24.0018C69.9279 23.9911 69.8962 23.9874 69.8649 23.9909H69.4424V23.0708H70.4647C70.9248 23.0708 71.119 23.2719 71.119 23.7524V26.2366H71.8006C71.913 26.2556 72.0286 26.2416 72.1332 26.1962C72.2379 26.1509 72.3271 26.0761 72.3901 25.9811L73.9884 23.0708H75.13L73.3886 26.1957C73.2949 26.3906 73.1544 26.5592 72.9797 26.6865V26.7069C72.9797 26.7069 73.1841 26.7614 73.3886 27.1772L74.4689 29.4366C74.5677 29.6615 74.7313 29.6819 74.9766 29.6819H75.1709V30.5986H74.6086C74.0497 30.5986 73.835 30.5236 73.6135 30.0329L72.3697 27.4226C72.247 27.1772 72.0289 27.1431 71.729 27.1431H71.119V30.602H70.0967L70.0899 24.226Z" fill="white"/>
<path d="M79.1614 22.9446C79.6583 22.9475 80.1496 23.0499 80.6062 23.2458C81.0629 23.4416 81.4757 23.7269 81.8203 24.0849C82.1649 24.4428 82.4344 24.8662 82.6128 25.33C82.7911 25.7937 82.8748 26.2885 82.8589 26.7852C82.8589 29.0036 81.2402 30.7314 79.1614 30.7314C77.0827 30.7314 75.4776 29.0036 75.4776 26.7852C75.4776 24.6212 77.0861 22.9446 79.1614 22.9446ZM79.1614 29.7295C80.62 29.7295 81.7991 28.4482 81.7991 26.7852C81.7991 25.1222 80.62 23.9362 79.1614 23.9362C77.7029 23.9362 76.5374 25.1733 76.5374 26.7852C76.5374 28.397 77.7063 29.7295 79.1614 29.7295Z" fill="white"/>
<path d="M84.205 23.9909H83.5439V23.0708H86.7097C88.0354 23.0708 88.9691 23.9977 88.9691 25.429C88.9691 26.8603 88.0354 27.8144 86.7097 27.8144H85.2239V30.5952H84.2016L84.205 23.9909ZM86.5461 26.9012C87.4015 26.9012 87.9093 26.3389 87.9093 25.4324C87.9093 24.5259 87.3879 23.9909 86.5461 23.9909H85.2137V26.9012H86.5461Z" fill="white"/>
<path d="M90.1655 23.9909H89.501V23.0708H95.0932C95.5498 23.0708 95.7441 23.2719 95.7441 23.7524V29.4468C95.7398 29.4778 95.7426 29.5093 95.7523 29.5391C95.7619 29.5688 95.7782 29.596 95.7998 29.6186C95.8214 29.6412 95.8479 29.6586 95.8771 29.6696C95.9064 29.6806 95.9378 29.6848 95.969 29.6819H96.4052V30.5986H95.3828C94.916 30.5986 94.7217 30.3976 94.7217 29.9171V24.226C94.7266 24.1949 94.7243 24.1631 94.7149 24.133C94.7055 24.103 94.6893 24.0755 94.6675 24.0527C94.6458 24.03 94.619 24.0126 94.5894 24.0018C94.5598 23.9911 94.5281 23.9874 94.4968 23.9909H91.1776V30.602H90.1553L90.1655 23.9909Z" fill="white"/>
<path d="M100.794 22.9446C101.29 22.948 101.781 23.0507 102.237 23.2468C102.694 23.4428 103.106 23.7282 103.45 24.0861C103.795 24.444 104.064 24.8672 104.242 25.3308C104.42 25.7943 104.504 26.2888 104.488 26.7852C104.488 29.0036 102.869 30.7314 100.794 30.7314C98.7184 30.7314 97.1065 29.0036 97.1065 26.7852C97.0997 24.6212 98.7081 22.9446 100.794 22.9446ZM100.794 29.7295C102.249 29.7295 103.428 28.4482 103.428 26.7852C103.428 25.1222 102.249 23.9362 100.794 23.9362C99.3386 23.9362 98.1663 25.1733 98.1663 26.7852C98.1663 28.397 99.3283 29.7295 100.794 29.7295Z" fill="white"/>
<path d="M105.827 23.9909H105.166V23.0708H108.332C109.657 23.0708 110.595 23.9977 110.595 25.429C110.595 26.8603 109.657 27.8144 108.332 27.8144H106.846V30.5952H105.824L105.827 23.9909ZM108.168 26.9012C109.024 26.9012 109.531 26.3389 109.531 25.4324C109.531 24.5259 109.01 23.9909 108.168 23.9909H106.836V26.9012H108.168Z" fill="white"/>
<path d="M110.421 29.6853H110.564C110.748 29.6853 110.84 29.6444 110.905 29.4502L113.154 23.0742H114.224L116.473 29.4502C116.535 29.6444 116.627 29.6853 116.814 29.6853H116.954V30.602H116.395C115.887 30.602 115.713 30.4759 115.55 29.9852L115.011 28.4381H112.381L111.842 29.9852C111.668 30.4759 111.501 30.602 110.997 30.602H110.435L110.421 29.6853ZM114.766 27.5418L113.982 25.2484C113.86 24.8565 113.696 24.1954 113.696 24.1954H113.676C113.676 24.1954 113.526 24.8565 113.403 25.2484L112.619 27.5418H114.766Z" fill="white"/>
<path d="M119.019 23.9909H117.581C117.431 23.9909 117.359 24.0659 117.359 24.2261V24.7066H116.442V23.7149C116.442 23.2344 116.596 23.0742 117.052 23.0742H122C122.457 23.0742 122.61 23.2344 122.61 23.7149V24.7066H121.704V24.2261C121.704 24.0659 121.622 23.9909 121.482 23.9909H120.034V30.602H119.012L119.019 23.9909Z" fill="white"/>
<path d="M123.755 24.226C123.76 24.1949 123.758 24.1631 123.749 24.133C123.739 24.103 123.723 24.0755 123.701 24.0527C123.679 24.03 123.653 24.0126 123.623 24.0018C123.593 23.9911 123.562 23.9874 123.53 23.9909H123.091V23.0708H124.113C124.573 23.0708 124.764 23.2719 124.764 23.7524V27.8792C124.764 28.3052 124.703 28.9561 124.703 28.9561H124.723C124.723 28.9561 125.112 28.2745 125.367 27.869L128.502 23.0708H129.501V29.4468C129.497 29.4775 129.499 29.5087 129.509 29.5382C129.518 29.5676 129.534 29.5946 129.556 29.6172C129.577 29.6397 129.603 29.6572 129.632 29.6684C129.661 29.6796 129.692 29.6842 129.722 29.6819H130.162V30.5986H129.14C128.673 30.5986 128.479 30.3975 128.479 29.9171V25.797C128.479 25.3813 128.54 24.6963 128.54 24.6963H128.519C128.519 24.6963 128.162 25.3779 127.909 25.797L124.75 30.6157H123.745L123.755 24.226Z" fill="white"/>
<path d="M131.515 23.9909H130.854V23.0708H134C135.209 23.0708 136.085 23.7728 136.085 24.9894C136.102 25.3165 136.028 25.6419 135.869 25.9287C135.711 26.2154 135.475 26.452 135.189 26.6115V26.6319C135.557 26.7668 135.871 27.0175 136.084 27.3463C136.298 27.675 136.398 28.0642 136.371 28.4551C136.371 29.8727 135.322 30.5986 134.061 30.5986H132.176C131.72 30.5986 131.515 30.3976 131.515 29.9171V23.9909ZM134.01 26.24C134.156 26.2416 134.3 26.2125 134.434 26.1547C134.568 26.0968 134.689 26.0115 134.788 25.9042C134.887 25.797 134.962 25.6701 135.009 25.5319C135.056 25.3937 135.073 25.2472 135.059 25.1018C135.072 24.9571 135.054 24.8113 135.006 24.6742C134.958 24.5371 134.881 24.4118 134.781 24.3067C134.68 24.2016 134.559 24.1191 134.424 24.0646C134.29 24.0101 134.145 23.985 134 23.9909H132.524V26.24H134.01ZM132.746 29.6853H134.109C134.276 29.693 134.442 29.6647 134.597 29.6022C134.752 29.5398 134.891 29.4447 135.006 29.3234C135.121 29.2021 135.208 29.0575 135.262 28.8994C135.316 28.7414 135.335 28.5736 135.318 28.4074C135.334 28.2409 135.314 28.073 135.26 27.9147C135.206 27.7565 135.118 27.6116 135.004 27.4895C134.89 27.3675 134.751 27.271 134.596 27.2066C134.442 27.1422 134.276 27.1113 134.109 27.1158H132.51V29.4502C132.506 29.4821 132.509 29.5147 132.519 29.5453C132.529 29.5759 132.546 29.6037 132.569 29.6265C132.592 29.6493 132.62 29.6665 132.65 29.6767C132.681 29.6869 132.714 29.6899 132.746 29.6853Z" fill="white"/>
<path d="M137.789 24.226C137.794 24.1949 137.792 24.1631 137.782 24.133C137.773 24.103 137.757 24.0755 137.735 24.0527C137.713 24.03 137.686 24.0126 137.657 24.0018C137.627 23.9911 137.595 23.9874 137.564 23.9909H137.128V23.0708H138.15C138.607 23.0708 138.801 23.2719 138.801 23.7524V26.3866H142.454V23.7524C142.454 23.2719 142.649 23.0708 143.115 23.0708H144.138V23.9875H143.702C143.67 23.984 143.639 23.9877 143.609 23.9984C143.579 24.0092 143.553 24.0266 143.531 24.0493C143.509 24.0721 143.493 24.0996 143.484 24.1296C143.474 24.1597 143.472 24.1915 143.477 24.2226V30.602H142.454V27.2965H138.808V30.602H137.786L137.789 24.226Z" fill="white"/>
<path d="M145.487 24.226C145.487 24.0659 145.409 23.9909 145.266 23.9909H144.826V23.0708H145.849C146.305 23.0708 146.499 23.2718 146.499 23.7523V25.9061H147.863C149.123 25.9061 150.153 26.6421 150.153 28.1995C150.153 29.8216 149.083 30.585 147.699 30.585H146.131C145.671 30.585 145.45 30.3839 145.45 29.9034L145.487 24.226ZM146.731 29.6785H147.781C148.605 29.6785 149.123 29.1469 149.123 28.2302C149.123 27.3135 148.605 26.8194 147.781 26.8194H146.506V29.4434C146.501 29.4749 146.503 29.5072 146.512 29.5378C146.521 29.5684 146.537 29.5965 146.559 29.6199C146.581 29.6433 146.607 29.6614 146.637 29.6727C146.667 29.6841 146.699 29.6884 146.731 29.6853V29.6785ZM151.161 23.0674H152.184V29.4434C152.179 29.4743 152.182 29.5059 152.192 29.5356C152.201 29.5654 152.218 29.5926 152.239 29.6152C152.261 29.6378 152.287 29.6552 152.317 29.6662C152.346 29.6771 152.377 29.6814 152.409 29.6785H152.848V30.5952H151.826C151.366 30.5952 151.175 30.3941 151.175 29.9136L151.161 23.0674Z" fill="white"/>
<path d="M154.208 24.2261C154.213 24.195 154.21 24.1631 154.201 24.1331C154.192 24.103 154.175 24.0755 154.154 24.0528C154.132 24.03 154.105 24.0126 154.075 24.0019C154.046 23.9911 154.014 23.9874 153.983 23.9909H153.547V23.0708H154.569C155.029 23.0708 155.223 23.2719 155.223 23.7524V27.8792C155.223 28.3052 155.162 28.9561 155.162 28.9561H155.182C155.182 28.9561 155.568 28.2745 155.823 27.869L158.958 23.0708H159.957V29.4468C159.953 29.4778 159.955 29.5093 159.965 29.5391C159.975 29.5688 159.991 29.596 160.012 29.6186C160.034 29.6412 160.061 29.6586 160.09 29.6696C160.119 29.6806 160.151 29.6848 160.182 29.6819H160.618V30.5986H159.596C159.129 30.5986 158.934 30.3976 158.934 29.9171V25.7971C158.934 25.3813 158.996 24.6963 158.996 24.6963H158.975C158.975 24.6963 158.635 25.3779 158.365 25.7971L155.206 30.6157H154.184L154.208 24.2261ZM155.54 21.3567V21.1965H156.341V21.3465C156.338 21.4406 156.354 21.5344 156.389 21.622C156.423 21.7096 156.476 21.789 156.543 21.8553C156.61 21.9216 156.689 21.9733 156.777 22.0071C156.865 22.0409 156.959 22.0562 157.053 22.0519C157.149 22.0578 157.245 22.0434 157.335 22.0096C157.425 21.9758 157.507 21.9234 157.575 21.8558C157.643 21.7883 157.696 21.7071 157.731 21.6175C157.765 21.528 157.781 21.4321 157.776 21.3363V21.1965H158.563V21.3669C158.563 22.2427 157.847 22.73 157.053 22.73C156.259 22.73 155.54 22.2325 155.54 21.3669V21.3567Z" fill="white"/>
<path d="M165.013 29.4297C165.213 29.6331 165.482 29.7547 165.767 29.7705C166.203 29.7705 166.397 29.4706 166.581 28.9288L164.349 24.2363C164.326 24.1651 164.28 24.1035 164.218 24.061C164.157 24.0185 164.083 23.9975 164.008 24.0011H163.804V23.0708H164.424C164.904 23.0708 165.048 23.2207 165.249 23.6876L166.707 26.9421C166.918 27.4123 167.082 27.869 167.082 27.869H167.102C167.102 27.869 167.225 27.4634 167.409 26.9421L168.537 23.6876C168.711 23.1867 168.878 23.0708 169.382 23.0708H169.934V23.9875H169.771C169.696 23.9774 169.621 23.9946 169.558 24.036C169.495 24.0773 169.45 24.14 169.43 24.2124L167.477 29.3957C167.222 30.0772 166.775 30.7281 165.889 30.7281C165.395 30.7191 164.919 30.5384 164.543 30.2169L165.013 29.4297Z" fill="white"/>
<path d="M171.052 24.226C171.057 24.1949 171.055 24.1631 171.046 24.133C171.036 24.103 171.02 24.0755 170.998 24.0527C170.977 24.03 170.95 24.0126 170.92 24.0018C170.891 23.9911 170.859 23.9874 170.828 23.9909H170.391V23.0708H171.414C171.87 23.0708 172.065 23.2719 172.065 23.7524V26.3866H175.718V23.7524C175.718 23.2719 175.912 23.0708 176.399 23.0708H177.422V23.9875H176.985C176.954 23.984 176.922 23.9877 176.893 23.9984C176.863 24.0092 176.836 24.0266 176.815 24.0493C176.793 24.0721 176.777 24.0996 176.767 24.1296C176.758 24.1597 176.756 24.1915 176.761 24.2226V30.602H175.738V27.2965H172.071V30.602H171.049L171.052 24.226Z" fill="white"/>
<path d="M178.764 24.226C178.769 24.1949 178.767 24.1631 178.758 24.133C178.748 24.103 178.732 24.0755 178.71 24.0527C178.688 24.03 178.662 24.0126 178.632 24.0018C178.602 23.9911 178.571 23.9874 178.539 23.9909H178.1V23.0708H179.122C179.582 23.0708 179.773 23.2719 179.773 23.7524V27.8792C179.773 28.3052 179.712 28.9561 179.712 28.9561H179.732C179.732 28.9561 180.121 28.2745 180.376 27.869L183.511 23.0708H184.51V29.4468C184.506 29.4775 184.509 29.5087 184.518 29.5382C184.527 29.5676 184.543 29.5946 184.565 29.6172C184.586 29.6397 184.612 29.6572 184.641 29.6684C184.67 29.6796 184.701 29.6842 184.731 29.6819H185.171V30.5986H184.149C183.682 30.5986 183.488 30.3975 183.488 29.9171V25.797C183.488 25.3813 183.549 24.6963 183.549 24.6963H183.528C183.528 24.6963 183.188 25.3779 182.918 25.797L179.759 30.6157H178.737L178.764 24.226Z" fill="white"/>
<path d="M186.524 23.9909H185.863V23.0708H189.009C190.218 23.0708 191.094 23.7728 191.094 24.9894C191.111 25.3165 191.037 25.6419 190.878 25.9287C190.72 26.2154 190.484 26.452 190.198 26.6115V26.6319C190.566 26.7668 190.88 27.0175 191.093 27.3463C191.307 27.675 191.407 28.0642 191.38 28.4551C191.38 29.8727 190.331 30.5986 189.07 30.5986H187.186C186.729 30.5986 186.524 30.3976 186.524 29.9171V23.9909ZM189.019 26.24C189.164 26.2429 189.309 26.2152 189.443 26.1588C189.577 26.1024 189.698 26.0186 189.798 25.9126C189.898 25.8067 189.974 25.6811 190.023 25.5438C190.071 25.4065 190.09 25.2606 190.079 25.1155C190.091 24.9707 190.073 24.825 190.025 24.6879C189.977 24.5508 189.9 24.4255 189.8 24.3204C189.7 24.2152 189.578 24.1327 189.443 24.0782C189.309 24.0238 189.164 23.9987 189.019 24.0045H187.543V26.2537L189.019 26.24ZM187.755 29.6853H189.118C189.285 29.693 189.451 29.6647 189.606 29.6022C189.761 29.5398 189.9 29.4447 190.015 29.3234C190.13 29.2021 190.217 29.0575 190.271 28.8994C190.325 28.7414 190.344 28.5736 190.327 28.4074C190.343 28.2409 190.323 28.073 190.269 27.9147C190.215 27.7565 190.127 27.6116 190.013 27.4895C189.899 27.3675 189.76 27.271 189.606 27.2066C189.451 27.1422 189.285 27.1113 189.118 27.1158H187.519V29.4502C187.515 29.4821 187.518 29.5147 187.528 29.5453C187.538 29.5759 187.555 29.6037 187.578 29.6265C187.601 29.6493 187.629 29.6665 187.66 29.6767C187.69 29.6869 187.723 29.6899 187.755 29.6853Z" fill="white"/>
<path d="M192.804 23.9909H192.123V23.0708H196.359C196.815 23.0708 197.01 23.2719 197.01 23.7524V24.7031H196.076V24.2226C196.081 24.1915 196.078 24.1597 196.069 24.1296C196.06 24.0996 196.043 24.0721 196.022 24.0493C196 24.0266 195.973 24.0092 195.944 23.9984C195.914 23.9877 195.882 23.984 195.851 23.9875H193.806V26.3457H196.331V27.2624H193.806V29.4468C193.802 29.4775 193.805 29.5087 193.814 29.5382C193.824 29.5676 193.84 29.5946 193.861 29.6172C193.882 29.6397 193.908 29.6572 193.937 29.6684C193.966 29.6796 193.997 29.6842 194.028 29.6819H196.137C196.168 29.6848 196.2 29.6806 196.229 29.6696C196.258 29.6586 196.285 29.6412 196.306 29.6186C196.328 29.596 196.344 29.5688 196.354 29.5391C196.364 29.5093 196.366 29.4778 196.362 29.4468V28.9663H197.289V29.9171C197.289 30.3976 197.095 30.5986 196.635 30.5986H193.448C192.992 30.5986 192.787 30.3976 192.787 29.9171L192.804 23.9909Z" fill="white"/>
<path d="M198.598 23.9909H197.934V23.0708H201.103C202.425 23.0708 203.362 23.9977 203.362 25.429C203.362 26.8603 202.425 27.8144 201.103 27.8144H199.62V30.5952H198.598V23.9909ZM200.939 26.9012C201.795 26.9012 202.302 26.3389 202.302 25.4324C202.302 24.5259 201.784 23.9909 200.939 23.9909H199.62V26.9012H200.939Z" fill="white"/>
<path d="M207.523 22.9446C208.491 22.9446 210.222 23.3603 210.222 24.5769V25.313H209.285V24.887C209.285 24.2566 208.262 23.9362 207.543 23.9362C206.098 23.9362 204.977 25.0779 204.977 26.7749C204.977 28.4175 206.108 29.7295 207.574 29.7295C208.002 29.7233 208.425 29.6294 208.816 29.4536C209.207 29.2778 209.558 29.0237 209.847 28.7072L210.395 29.4773C210.037 29.8723 209.6 30.1881 209.112 30.4046C208.624 30.6211 208.097 30.7336 207.564 30.7348C205.417 30.7348 203.921 28.9968 203.921 26.7783C203.921 24.5599 205.468 22.9446 207.523 22.9446Z" fill="white"/>
<path d="M211.681 24.226C211.686 24.1949 211.683 24.1631 211.674 24.133C211.664 24.103 211.648 24.0755 211.626 24.0527C211.605 24.03 211.578 24.0126 211.548 24.0018C211.519 23.9911 211.487 23.9874 211.456 23.9909H211.02V23.0708H212.042C212.499 23.0708 212.693 23.2719 212.693 23.7524V27.8792C212.693 28.3052 212.631 28.9561 212.631 28.9561H212.652C212.652 28.9561 213.037 28.2745 213.293 27.869L216.428 23.0708H217.426V29.4468C217.422 29.4778 217.425 29.5093 217.434 29.5391C217.444 29.5688 217.46 29.596 217.482 29.6186C217.504 29.6412 217.53 29.6586 217.559 29.6696C217.589 29.6806 217.62 29.6848 217.651 29.6819H218.087V30.5986H217.065C216.598 30.5986 216.404 30.3975 216.404 29.9171V25.797C216.404 25.3813 216.465 24.6963 216.465 24.6963H216.445C216.445 24.6963 216.104 25.3779 215.835 25.797L212.679 30.6157H211.657L211.681 24.226Z" fill="white"/>
<path d="M221.15 23.9909H219.726C219.572 23.9909 219.501 24.0659 219.501 24.2261V24.7066H218.584V23.7149C218.584 23.2344 218.737 23.0742 219.197 23.0742H224.145C224.602 23.0742 224.755 23.2344 224.755 23.7149V24.7066H223.849V24.2261C223.854 24.1949 223.852 24.1631 223.842 24.1331C223.833 24.103 223.817 24.0755 223.795 24.0528C223.773 24.03 223.746 24.0126 223.717 24.0018C223.687 23.9911 223.655 23.9874 223.624 23.9909H222.179V30.602H221.157L221.15 23.9909Z" fill="white"/>
<path d="M225.877 23.9909H225.216V23.0708H229.452C229.908 23.0708 230.103 23.2719 230.103 23.7524V24.7031H229.166V24.2226C229.166 24.0625 229.084 23.9875 228.944 23.9875H226.899V26.3457H229.425V27.2624H226.882V29.4468C226.878 29.4778 226.881 29.5093 226.891 29.5391C226.9 29.5688 226.916 29.596 226.938 29.6186C226.96 29.6412 226.986 29.6586 227.015 29.6696C227.045 29.6806 227.076 29.6848 227.107 29.6819H229.213C229.244 29.6848 229.276 29.6806 229.305 29.6696C229.334 29.6586 229.361 29.6412 229.382 29.6186C229.404 29.596 229.42 29.5688 229.43 29.5391C229.44 29.5093 229.442 29.4778 229.438 29.4468V28.9663H230.365V29.9171C230.365 30.3976 230.171 30.5986 229.714 30.5986H226.542C226.085 30.5986 225.88 30.3976 225.88 29.9171L225.877 23.9909Z" fill="white"/>
<path d="M233.404 23.9909H231.97C231.816 23.9909 231.745 24.0659 231.745 24.2261V24.7066H230.828V23.7149C230.828 23.2344 230.981 23.0742 231.438 23.0742H236.386C236.846 23.0742 237 23.2344 237 23.7149V24.7066H236.083V24.2261C236.088 24.1949 236.086 24.1631 236.076 24.1331C236.067 24.103 236.05 24.0755 236.029 24.0528C236.007 24.03 235.98 24.0126 235.951 24.0018C235.921 23.9911 235.889 23.9874 235.858 23.9909H234.413V30.602H233.391L233.404 23.9909Z" fill="white"/>
<path d="M70.0801 38.9204H69.4189V38.0037H75.0077C75.4644 38.0037 75.6586 38.2047 75.6586 38.6852V44.3796C75.6544 44.4106 75.6572 44.4422 75.6668 44.4719C75.6765 44.5017 75.6927 44.5288 75.7144 44.5515C75.736 44.5741 75.7624 44.5915 75.7917 44.6025C75.821 44.6134 75.8524 44.6176 75.8835 44.6148H76.3197V45.5315H75.2974C74.8271 45.5315 74.6329 45.3304 74.6329 44.8499V39.1555C74.6329 38.9953 74.5511 38.9204 74.4114 38.9204H71.0922V45.5315H70.0698L70.0801 38.9204Z" fill="white"/>
<path d="M77.665 38.9204H77.0039V38.0037H80.1697C81.4954 38.0037 82.4325 38.9306 82.4325 40.3618C82.4325 41.7931 81.4954 42.7473 80.1697 42.7473H78.6839V45.5281H77.6616L77.665 38.9204ZM80.0096 41.8306C80.8649 41.8306 81.3727 41.2683 81.3727 40.3618C81.3727 39.4554 80.8547 38.9204 80.0096 38.9204H78.6737V41.8306H80.0096Z" fill="white"/>
<path d="M82.2591 44.6148H82.392C82.5761 44.6148 82.6681 44.5739 82.7328 44.3796L84.982 38.0037H86.052L88.3012 44.3796C88.3625 44.5739 88.4545 44.6148 88.6419 44.6148H88.7851V45.5315H88.2228C87.715 45.5315 87.5412 45.4054 87.3776 44.9147L86.8392 43.3675H84.2016L83.6632 44.9147C83.4894 45.4054 83.3224 45.5315 82.818 45.5315H82.2557L82.2591 44.6148ZM86.5973 42.4713L85.7998 40.1778C85.6772 39.7859 85.517 39.1248 85.517 39.1248H85.4965C85.4965 39.1248 85.3432 39.7859 85.2205 40.1778L84.4367 42.4713H86.5973Z" fill="white"/>
<path d="M89.8486 38.9204H89.1875V38.0037H92.3329C93.5461 38.0037 94.4219 38.7057 94.4219 39.9223C94.4383 40.2493 94.3631 40.5744 94.2048 40.861C94.0464 41.1475 93.8112 41.3842 93.5256 41.5444V41.5648C93.8926 41.7007 94.2058 41.9517 94.4183 42.2804C94.6308 42.609 94.7313 42.9975 94.7047 43.388C94.7047 44.8056 93.6551 45.5315 92.3942 45.5315H90.5097C90.0531 45.5315 89.8486 45.3304 89.8486 44.8499V38.9204ZM92.3431 41.1695C92.489 41.1711 92.6337 41.142 92.7676 41.0841C92.9016 41.0263 93.022 40.941 93.1209 40.8337C93.2198 40.7264 93.2951 40.5996 93.342 40.4613C93.3888 40.3231 93.4061 40.1766 93.3927 40.0313C93.4054 39.8866 93.3871 39.7408 93.3391 39.6037C93.291 39.4666 93.2143 39.3413 93.114 39.2362C93.0137 39.131 92.8922 39.0485 92.7575 38.9941C92.6228 38.9396 92.4781 38.9145 92.3329 38.9204H90.8573V41.1695H92.3431ZM91.0822 44.6148H92.4453C92.6122 44.6225 92.7787 44.5941 92.9336 44.5317C93.0885 44.4692 93.2281 44.3741 93.3429 44.2528C93.4577 44.1316 93.545 43.987 93.5989 43.8289C93.6528 43.6708 93.6719 43.503 93.6551 43.3369C93.6706 43.1703 93.6506 43.0024 93.5964 42.8442C93.5422 42.686 93.4551 42.541 93.3407 42.419C93.2264 42.2969 93.0875 42.2005 92.9331 42.1361C92.7788 42.0717 92.6125 42.0407 92.4453 42.0453H90.8471V44.3796C90.8425 44.4116 90.8455 44.4441 90.8557 44.4747C90.8659 44.5053 90.8831 44.5332 90.9059 44.556C90.9287 44.5788 90.9565 44.596 90.9871 44.6062C91.0177 44.6164 91.0503 44.6193 91.0822 44.6148Z" fill="white"/>
<path d="M96.122 39.1555C96.127 39.1244 96.1246 39.0926 96.1152 39.0625C96.1058 39.0324 96.0896 39.005 96.0678 38.9822C96.0461 38.9594 96.0193 38.942 95.9897 38.9313C95.9601 38.9206 95.9284 38.9168 95.8971 38.9204H95.4609V38.0037H96.4833C96.9399 38.0037 97.1342 38.2047 97.1342 38.6852V42.8121C97.1342 43.238 97.0728 43.8889 97.0728 43.8889H97.0933C97.0933 43.8889 97.4783 43.2074 97.7339 42.8018L100.869 38.0037H101.868V44.3796C101.863 44.4106 101.866 44.4422 101.876 44.4719C101.885 44.5017 101.902 44.5288 101.923 44.5515C101.945 44.5741 101.971 44.5915 102.001 44.6025C102.03 44.6134 102.061 44.6176 102.092 44.6148H102.529V45.5315H101.506C101.039 45.5315 100.845 45.3304 100.845 44.8499V40.7128C100.845 40.2971 100.907 39.6121 100.907 39.6121H100.886C100.886 39.6121 100.545 40.2937 100.276 40.7128L97.1205 45.5315H96.0982L96.122 39.1555Z" fill="white"/>
<path d="M105.592 38.9204H104.157C104.004 38.9204 103.932 38.9953 103.932 39.1555V39.636H103.016V38.6443C103.016 38.1638 103.169 38.0037 103.629 38.0037H108.577C109.034 38.0037 109.187 38.1638 109.187 38.6443V39.636H108.291V39.1555C108.296 39.1244 108.293 39.0926 108.284 39.0625C108.275 39.0324 108.258 39.005 108.237 38.9822C108.215 38.9594 108.188 38.942 108.159 38.9313C108.129 38.9206 108.097 38.9168 108.066 38.9204H106.621V45.5315H105.599L105.592 38.9204Z" fill="white"/>
<path d="M110.336 38.9204H109.654V38.0037H113.89C114.347 38.0037 114.541 38.2047 114.541 38.6852V39.636H113.607V39.1555C113.607 38.9953 113.526 38.9204 113.386 38.9204H111.341V41.2785H113.866V42.1952H111.341V44.3796C111.337 44.4106 111.34 44.4422 111.349 44.4719C111.359 44.5017 111.375 44.5288 111.397 44.5515C111.419 44.5741 111.445 44.5915 111.474 44.6025C111.504 44.6134 111.535 44.6176 111.566 44.6148H113.672C113.703 44.6176 113.735 44.6134 113.764 44.6025C113.793 44.5915 113.82 44.5741 113.841 44.5515C113.863 44.5288 113.879 44.5017 113.889 44.4719C113.898 44.4422 113.901 44.4106 113.897 44.3796V43.8991H114.824V44.8499C114.824 45.3304 114.63 45.5315 114.173 45.5315H110.983C110.527 45.5315 110.322 45.3304 110.322 44.8499L110.336 38.9204Z" fill="white"/>
<path d="M115.24 44.6148C116.45 44.4444 116.879 42.8121 116.879 39.7519V38.9204H116.198V38.0037H120.423C120.88 38.0037 121.074 38.2047 121.074 38.6852V44.3796C121.07 44.4106 121.073 44.4422 121.083 44.4719C121.092 44.5017 121.108 44.5288 121.13 44.5514C121.152 44.5741 121.178 44.5915 121.207 44.6025C121.237 44.6134 121.268 44.6176 121.299 44.6148H121.735V45.5315H120.713C120.256 45.5315 120.062 45.3304 120.062 44.8499V39.1555C120.067 39.1244 120.065 39.0926 120.055 39.0625C120.046 39.0324 120.03 39.005 120.008 38.9822C119.986 38.9594 119.96 38.942 119.93 38.9313C119.9 38.9206 119.869 38.9168 119.837 38.9204H117.834V39.7689C117.834 43.3743 117.21 45.4735 115.227 45.5928L115.24 44.6148Z" fill="white"/>
<path d="M123.091 39.1555C123.096 39.1244 123.093 39.0926 123.084 39.0625C123.075 39.0324 123.058 39.005 123.037 38.9822C123.015 38.9594 122.988 38.942 122.958 38.9313C122.929 38.9206 122.897 38.9168 122.866 38.9204H122.43V38.0037H123.452C123.909 38.0037 124.103 38.2047 124.103 38.6852V40.8389H125.517C126.781 40.8389 127.807 41.5546 127.807 43.1324C127.807 44.7647 126.73 45.5178 125.354 45.5178H123.745C123.288 45.5178 123.084 45.3168 123.084 44.8363L123.091 39.1555ZM124.335 44.608H125.422C126.246 44.608 126.785 44.0763 126.785 43.1358C126.785 42.1952 126.263 41.7488 125.422 41.7488H124.11V44.3728C124.104 44.4043 124.106 44.4366 124.115 44.4673C124.125 44.4979 124.141 44.526 124.162 44.5494C124.184 44.5728 124.211 44.5909 124.241 44.6022C124.271 44.6135 124.303 44.6179 124.335 44.6148V44.608Z" fill="white"/>
<path d="M131.993 37.8743C132.96 37.8743 134.692 38.29 134.692 39.5066V40.2427H133.755V39.8167C133.755 39.1863 132.732 38.8659 132.013 38.8659C130.568 38.8659 129.447 40.0075 129.447 41.7046C129.447 43.3472 130.578 44.6592 132.044 44.6592C132.472 44.6528 132.894 44.5587 133.284 44.3829C133.675 44.2071 134.025 43.9532 134.313 43.6368L134.872 44.4036C134.514 44.7986 134.078 45.1145 133.591 45.3311C133.104 45.5476 132.577 45.66 132.044 45.6611C129.893 45.6611 128.397 43.9231 128.397 41.7046C128.397 39.4861 129.934 37.8743 131.993 37.8743Z" fill="white"/>
<path d="M137.851 38.9204H136.413C136.259 38.9204 136.191 38.9953 136.191 39.1555V39.636H135.274V38.6443C135.274 38.1638 135.424 38.0037 135.884 38.0037H140.833C141.289 38.0037 141.443 38.1638 141.443 38.6443V39.636H140.536V39.1555C140.536 38.9953 140.454 38.9204 140.315 38.9204H138.866V45.5315H137.844L137.851 38.9204Z" fill="white"/>
<path d="M142.573 38.9204H141.912V38.0037H145.058C146.271 38.0037 147.146 38.7057 147.146 39.9223C147.163 40.2493 147.088 40.5744 146.929 40.861C146.771 41.1475 146.536 41.3842 146.25 41.5444V41.5648C146.618 41.7006 146.931 41.9515 147.144 42.28C147.357 42.6086 147.458 42.9972 147.433 43.388C147.433 44.8056 146.383 45.5315 145.119 45.5315H143.238C142.778 45.5315 142.573 45.3304 142.573 44.8499V38.9204ZM145.068 41.1695C145.214 41.1716 145.359 41.1429 145.493 41.0852C145.627 41.0275 145.748 40.9422 145.847 40.8348C145.946 40.7274 146.021 40.6004 146.068 40.4619C146.114 40.3235 146.131 40.1767 146.117 40.0313C146.13 39.8866 146.112 39.7408 146.064 39.6037C146.016 39.4666 145.939 39.3413 145.839 39.2362C145.738 39.131 145.617 39.0485 145.482 38.9941C145.347 38.9396 145.203 38.9145 145.058 38.9204H143.582V41.1695H145.068ZM143.807 44.6148H145.17C145.337 44.6224 145.504 44.5941 145.659 44.5316C145.814 44.4692 145.953 44.3742 146.068 44.2529C146.184 44.1317 146.271 43.9872 146.325 43.8291C146.38 43.6711 146.399 43.5032 146.383 43.3369C146.398 43.1701 146.378 43.0022 146.323 42.8439C146.268 42.6857 146.181 42.5408 146.066 42.4188C145.952 42.2968 145.813 42.2005 145.658 42.1361C145.504 42.0717 145.337 42.0408 145.17 42.0453H143.572V44.3796C143.567 44.4116 143.57 44.4441 143.58 44.4747C143.59 44.5053 143.608 44.5332 143.631 44.556C143.653 44.5788 143.681 44.596 143.712 44.6062C143.742 44.6164 143.775 44.6193 143.807 44.6148Z" fill="white"/>
<path d="M147.821 44.6148H147.964C148.002 44.6226 148.041 44.6227 148.079 44.615C148.117 44.6074 148.153 44.5921 148.185 44.5701C148.217 44.5481 148.244 44.5199 148.265 44.4872C148.285 44.4544 148.299 44.4179 148.305 44.3796L150.548 38.0037H151.614L153.867 44.3796C153.925 44.5739 154.017 44.6148 154.207 44.6148H154.351V45.5315H153.792C153.281 45.5315 153.11 45.4054 152.947 44.9147L152.405 43.3675H149.764L149.225 44.9147C149.051 45.4054 148.885 45.5315 148.38 45.5315H147.821V44.6148ZM152.159 42.4713L151.376 40.1778C151.253 39.7859 151.089 39.1248 151.089 39.1248H151.069C151.069 39.1248 150.916 39.7859 150.793 40.1778L150.009 42.4713H152.159Z" fill="white"/>
<path d="M70.0899 54.0818C70.0948 54.0507 70.0925 54.0188 70.0831 53.9888C70.0737 53.9587 70.0574 53.9312 70.0357 53.9085C70.0139 53.8857 69.9872 53.8683 69.9575 53.8576C69.9279 53.8468 69.8962 53.8431 69.8649 53.8466H69.4424V52.9299H70.4647C70.9248 52.9299 71.119 53.131 71.119 53.6115V56.2457H74.7722V53.6115C74.7722 53.131 74.9664 52.9299 75.4333 52.9299H76.4556V53.8466H76.0194C75.9881 53.8431 75.9564 53.8468 75.9268 53.8576C75.8972 53.8683 75.8705 53.8857 75.8487 53.9085C75.8269 53.9312 75.8107 53.9587 75.8013 53.9888C75.7919 54.0188 75.7896 54.0507 75.7945 54.0818V60.4577H74.7722V57.1488H71.1088V60.4543H70.0865L70.0899 54.0818Z" fill="white"/>
<path d="M77.7978 54.0815C77.7978 53.9214 77.716 53.8464 77.5763 53.8464H77.1367V52.9297H78.1591C78.6157 52.9297 78.8099 53.1307 78.8099 53.6112V57.7381C78.8099 58.1675 78.7486 58.8149 78.7486 58.8149H78.7691C78.7691 58.8149 79.1575 58.1334 79.4097 57.7279L82.5483 52.9297H83.5434V59.3057C83.5391 59.3366 83.542 59.3682 83.5516 59.3979C83.5613 59.4277 83.5775 59.4549 83.5991 59.4775C83.6207 59.5001 83.6472 59.5175 83.6765 59.5285C83.7057 59.5394 83.7371 59.5437 83.7683 59.5408H84.2079V60.4575H83.1855C82.7153 60.4575 82.5244 60.2564 82.5244 59.7759V55.6423C82.5244 55.2265 82.5858 54.545 82.5858 54.545H82.5619C82.5619 54.545 82.2211 55.2265 81.9519 55.6423L78.7963 60.4609H77.774L77.7978 54.0815Z" fill="white"/>
<path d="M86.5461 57.05C86.65 56.8462 86.8095 56.676 87.0062 56.5592V56.5388C87.0062 56.5388 86.8119 56.4638 86.6074 56.0685L85.5851 54.0954C85.4726 53.8705 85.3193 53.85 85.0739 53.85H84.8695V52.9333H85.3806C85.9395 52.9333 86.1133 53.0185 86.3587 53.499L87.5684 55.8231C87.7116 56.089 87.9092 56.123 88.1921 56.123H88.5874V52.9333H89.5484V56.1264H89.9232C90.0483 56.148 90.177 56.1308 90.2921 56.0772C90.4072 56.0236 90.5032 55.9362 90.5673 55.8266L91.7771 53.5024C92.0224 53.0219 92.186 52.9368 92.7551 52.9368H93.2629V53.8534H93.0618C92.8164 53.8534 92.6631 53.8739 92.5404 54.0988L91.5181 56.0719C91.317 56.4672 91.1228 56.5422 91.1228 56.5422V56.5626C91.317 56.6783 91.4724 56.8491 91.5692 57.0534L93.4946 60.4612H92.3734L90.6252 57.2953C90.5728 57.1891 90.4883 57.1021 90.3838 57.0465C90.2792 56.9908 90.1599 56.9694 90.0425 56.9852H89.5484V60.4612H88.5703V56.9852H88.083C87.9656 56.9694 87.8463 56.9908 87.7417 57.0465C87.6372 57.1021 87.5527 57.1891 87.5003 57.2953L85.7487 60.4612H84.6309L86.5461 57.05Z" fill="white"/>
<path d="M94.5646 53.85H93.9035V52.9333H98.136C98.596 52.9333 98.7903 53.1344 98.7903 53.6149V54.5657H97.8531V54.0818C97.8581 54.0507 97.8557 54.0188 97.8463 53.9888C97.8369 53.9587 97.8207 53.9312 97.7989 53.9085C97.7772 53.8857 97.7504 53.8683 97.7208 53.8576C97.6912 53.8468 97.6595 53.8431 97.6282 53.8466H95.5835V56.2048H98.1087V57.1215H95.5801V59.3059C95.5759 59.3369 95.5787 59.3685 95.5884 59.3982C95.598 59.4279 95.6143 59.4551 95.6359 59.4777C95.6575 59.5003 95.6839 59.5178 95.7132 59.5287C95.7425 59.5397 95.7739 59.5439 95.805 59.5411H97.9145C97.9453 59.5434 97.9763 59.5387 98.0052 59.5275C98.0341 59.5163 98.0601 59.4988 98.0813 59.4763C98.1025 59.4538 98.1184 59.4268 98.1279 59.3973C98.1374 59.3678 98.1401 59.3366 98.136 59.3059V58.8288H99.0629V59.7762C99.0629 60.2567 98.8687 60.4577 98.412 60.4577H95.2257C94.7657 60.4577 94.5646 60.2567 94.5646 59.7762V53.85Z" fill="white"/>
<path d="M100.378 53.8498H99.7168V52.9331H103.83C104.29 52.9331 104.481 53.1342 104.481 53.6147V54.5654H103.554V54.0815C103.554 53.9214 103.476 53.8464 103.332 53.8464H101.397V60.4575H100.374L100.378 53.8498Z" fill="white"/>
<path d="M108.506 52.8037C109.002 52.8071 109.493 52.9098 109.95 53.1058C110.406 53.3018 110.819 53.5872 111.163 53.945C111.508 54.3029 111.777 54.7261 111.956 55.1896C112.134 55.6532 112.219 56.1478 112.203 56.6443C112.203 58.8628 110.581 60.5905 108.506 60.5905C106.43 60.5905 104.818 58.8628 104.818 56.6443C104.818 54.4803 106.427 52.8037 108.506 52.8037ZM108.506 59.5886C109.961 59.5886 111.143 58.3073 111.143 56.6443C111.143 55.0324 109.961 53.7988 108.506 53.7988C107.05 53.7988 105.878 55.0324 105.878 56.6443C105.878 58.3073 107.05 59.5886 108.506 59.5886Z" fill="white"/>
<path d="M113.55 53.8498H112.889V52.9331H116.055C117.377 52.9331 118.314 53.86 118.314 55.2913C118.314 56.7226 117.377 57.6767 116.055 57.6767H114.565V60.4575H113.543L113.55 53.8498ZM115.891 56.76C116.746 56.76 117.254 56.1978 117.254 55.2913C117.254 54.3848 116.736 53.8498 115.891 53.8498H114.555V56.76H115.891Z" fill="white"/>
<path d="M122.539 52.8037C123.036 52.8066 123.527 52.9091 123.984 53.1049C124.441 53.3007 124.853 53.5861 125.198 53.944C125.543 54.302 125.812 54.7253 125.991 55.1891C126.169 55.6529 126.253 56.1477 126.237 56.6443C126.237 58.8628 124.618 60.5905 122.539 60.5905C120.46 60.5905 118.855 58.8525 118.855 56.6443C118.855 54.4803 120.464 52.8037 122.539 52.8037ZM122.539 59.5886C123.998 59.5886 125.177 58.3073 125.177 56.6443C125.177 55.0324 123.998 53.7988 122.539 53.7988C121.081 53.7988 119.915 55.0324 119.915 56.6443C119.915 58.3073 121.084 59.5886 122.539 59.5886Z" fill="white"/>
<path d="M126.942 59.534H127.106C128.104 58.0618 128.214 56.1262 128.214 54.47V53.8395H127.563V52.9229H131.805C132.265 52.9229 132.456 53.1239 132.456 53.6044V59.534H132.681C133.141 59.534 133.322 59.7146 133.322 60.2155V61.9535H132.385V60.696C132.385 60.5461 132.317 60.4609 132.173 60.4609H127.45C127.31 60.4609 127.239 60.5359 127.239 60.696V61.9535H126.302V60.2155C126.302 59.7248 126.486 59.534 126.942 59.534ZM131.434 59.534V54.0815C131.439 54.0504 131.436 54.0186 131.427 53.9885C131.418 53.9584 131.401 53.931 131.38 53.9082C131.358 53.8854 131.331 53.868 131.302 53.8573C131.272 53.8466 131.24 53.8428 131.209 53.8464H129.192V54.5279C129.192 56.1705 129.021 58.1743 128.169 59.5272L131.434 59.534Z" fill="white"/>
<path d="M137.421 52.8037C138.389 52.8037 140.12 53.2229 140.12 54.436V55.1721H139.183V54.7632C139.183 54.1327 138.161 53.8158 137.442 53.8158C135.997 53.8158 134.875 54.954 134.875 56.6511C134.875 58.2937 136.007 59.6057 137.472 59.6057C137.9 59.5992 138.322 59.5052 138.713 59.3294C139.103 59.1536 139.453 58.8997 139.742 58.5833L140.294 59.3535C139.935 59.7484 139.498 60.0643 139.01 60.2808C138.523 60.4973 137.995 60.6097 137.462 60.611C135.315 60.611 133.816 58.873 133.816 56.6545C133.816 54.436 135.363 52.8037 137.421 52.8037Z" fill="white"/>
<path d="M141.578 54.0815C141.583 54.0504 141.581 54.0186 141.571 53.9885C141.562 53.9585 141.546 53.931 141.524 53.9082C141.502 53.8855 141.475 53.868 141.446 53.8573C141.416 53.8466 141.384 53.8428 141.353 53.8464H140.917V52.9297H141.939C142.399 52.9297 142.594 53.1307 142.594 53.6112V56.0955H143.275C143.388 56.1145 143.503 56.1005 143.608 56.0551C143.712 56.0097 143.802 55.935 143.865 55.8399L145.463 52.9297H146.605L144.863 56.0546C144.77 56.2495 144.629 56.4181 144.454 56.5454V56.5658C144.454 56.5658 144.659 56.6203 144.863 57.0361L145.94 59.2954C146.042 59.5204 146.206 59.5408 146.451 59.5408H146.645V60.4575H146.083C145.524 60.4575 145.31 60.3825 145.088 59.8918L143.844 57.2814C143.722 57.0361 143.504 57.002 143.204 57.002H142.594V60.4575H141.571L141.578 54.0815Z" fill="white"/>
<path d="M150.65 52.8037C151.147 52.8066 151.638 52.9091 152.094 53.1049C152.551 53.3007 152.964 53.5861 153.309 53.944C153.653 54.302 153.923 54.7253 154.101 55.1891C154.279 55.6529 154.363 56.1477 154.347 56.6443C154.347 58.8628 152.728 60.5905 150.65 60.5905C148.571 60.5905 146.966 58.8628 146.966 56.6443C146.966 54.4803 148.574 52.8037 150.65 52.8037ZM150.65 59.5886C152.108 59.5886 153.287 58.3073 153.287 56.6443C153.287 55.0324 152.108 53.7988 150.65 53.7988C149.191 53.7988 148.026 55.0324 148.026 56.6443C148.026 58.3073 149.184 59.5886 150.65 59.5886Z" fill="white"/>
<path d="M155.704 54.0818C155.709 54.0507 155.706 54.0188 155.697 53.9888C155.688 53.9587 155.671 53.9312 155.65 53.9085C155.628 53.8857 155.601 53.8683 155.572 53.8576C155.542 53.8468 155.51 53.8431 155.479 53.8466H155.043V52.9299H156.065C156.522 52.9299 156.716 53.131 156.716 53.6115V57.7383C156.716 58.1677 156.655 58.8152 156.655 58.8152H156.682C156.682 58.8152 157.067 58.1336 157.323 57.7281L160.458 52.9299H161.453V59.3059C161.449 59.3369 161.451 59.3685 161.461 59.3982C161.471 59.428 161.487 59.4551 161.509 59.4777C161.53 59.5003 161.557 59.5178 161.586 59.5287C161.615 59.5397 161.647 59.5439 161.678 59.5411H162.134V60.4578H161.112C160.642 60.4578 160.43 60.2567 160.43 59.7762V55.6425C160.43 55.2268 160.492 54.5452 160.492 54.5452H160.471C160.471 54.5452 160.131 55.2268 159.861 55.6425L156.706 60.4612H155.683L155.704 54.0818ZM157.036 51.2124V51.0522H157.834V51.2022C157.83 51.2963 157.846 51.3901 157.881 51.4777C157.916 51.5653 157.968 51.6447 158.035 51.711C158.102 51.7773 158.182 51.829 158.27 51.8628C158.358 51.8967 158.452 51.9119 158.546 51.9076C158.642 51.9135 158.738 51.8991 158.828 51.8653C158.917 51.8315 158.999 51.7791 159.067 51.7115C159.136 51.644 159.189 51.5628 159.223 51.4732C159.258 51.3837 159.273 51.2878 159.268 51.192V51.0522H160.052V51.2124C160.052 52.0882 159.34 52.5755 158.546 52.5755C157.752 52.5755 157.023 52.0916 157.023 51.2158L157.036 51.2124Z" fill="white"/>
<path d="M169.24 52.8037C169.736 52.8071 170.227 52.9098 170.683 53.1059C171.14 53.3019 171.552 53.5873 171.896 53.9452C172.241 54.3031 172.51 54.7263 172.688 55.1899C172.866 55.6534 172.95 56.1479 172.934 56.6443C172.934 58.8628 171.315 60.5905 169.24 60.5905C167.164 60.5905 165.542 58.8525 165.542 56.6443C165.542 54.4803 167.161 52.8037 169.24 52.8037ZM169.24 59.5886C170.695 59.5886 171.877 58.3073 171.877 56.6443C171.877 55.0324 170.695 53.7988 169.24 53.7988C167.784 53.7988 166.612 55.0324 166.612 56.6443C166.612 58.3073 167.784 59.5886 169.24 59.5886Z" fill="white"/>
<path d="M174.283 53.8498H173.618V52.9331H177.81C178.27 52.9331 178.461 53.1342 178.461 53.6147V54.5654H177.537V54.0815C177.542 54.0504 177.54 54.0186 177.53 53.9885C177.521 53.9585 177.505 53.931 177.483 53.9082C177.461 53.8855 177.434 53.868 177.405 53.8573C177.375 53.8466 177.343 53.8429 177.312 53.8464H175.268V56.024H176.603C177.813 56.024 179.016 56.6306 179.016 58.2084C179.016 59.7214 177.926 60.4575 176.603 60.4575H174.899C174.439 60.4575 174.238 60.2564 174.238 59.7759L174.283 53.8498ZM175.523 59.5647H176.695C176.872 59.5762 177.049 59.5493 177.214 59.486C177.379 59.4227 177.529 59.3244 177.653 59.1978C177.776 59.0712 177.871 58.9194 177.931 58.7527C177.99 58.586 178.013 58.4085 177.997 58.2322C178.013 58.0569 177.99 57.8804 177.93 57.7149C177.87 57.5494 177.775 57.3989 177.651 57.274C177.527 57.1491 177.377 57.0527 177.212 56.9916C177.047 56.9305 176.871 56.9062 176.695 56.9202H175.298V59.3329C175.293 59.3639 175.295 59.3956 175.305 59.4256C175.314 59.4555 175.33 59.4829 175.352 59.5054C175.374 59.5279 175.401 59.545 175.431 59.5553C175.46 59.5656 175.492 59.5688 175.523 59.5647Z" fill="white"/>
<path d="M179.374 59.5342C180.588 59.3638 181.014 57.7315 181.014 54.6713V53.8398H180.332V52.9231H184.558C185.014 52.9231 185.209 53.1242 185.209 53.6047V59.2991C185.204 59.3301 185.207 59.3616 185.217 59.3913C185.226 59.4211 185.243 59.4483 185.264 59.4709C185.286 59.4935 185.312 59.5109 185.342 59.5219C185.371 59.5328 185.402 59.5371 185.433 59.5342H185.87V60.4509H184.847C184.391 60.4509 184.196 60.2498 184.196 59.7693V54.0817C184.201 54.0506 184.199 54.0188 184.19 53.9887C184.18 53.9587 184.164 53.9312 184.142 53.9085C184.12 53.8857 184.094 53.8683 184.064 53.8575C184.034 53.8468 184.003 53.8431 183.971 53.8466H181.978V54.6883C181.978 58.2938 181.358 60.3964 179.371 60.5122L179.374 59.5342Z" fill="white"/>
<path d="M186.35 59.534H186.493C186.677 59.534 186.769 59.4931 186.834 59.2988L189.083 52.9229H190.153L192.402 59.2988C192.463 59.4931 192.555 59.534 192.743 59.534H192.882V60.4507H192.323C191.816 60.4507 191.642 60.3246 191.478 59.8339L190.94 58.2867H188.302L187.764 59.8339C187.59 60.3246 187.423 60.4507 186.919 60.4507H186.356L186.35 59.534ZM190.688 57.3905L189.904 55.097C189.781 54.7051 189.618 54.044 189.618 54.044H189.597C189.597 54.044 189.447 54.7051 189.325 55.097L188.541 57.3905H190.688Z" fill="white"/>
<path d="M196.716 52.8037C197.684 52.8037 199.415 53.2229 199.415 54.436V55.1721H198.478V54.7632C198.478 54.1327 197.456 53.8158 196.737 53.8158C195.292 53.8158 194.171 54.954 194.171 56.6511C194.171 58.2937 195.302 59.6057 196.767 59.6057C197.196 59.5995 197.619 59.5056 198.01 59.3298C198.401 59.154 198.751 58.8999 199.04 58.5833L199.589 59.3535C199.23 59.7484 198.793 60.0643 198.306 60.2808C197.818 60.4973 197.291 60.6097 196.757 60.611C194.61 60.611 193.114 58.873 193.114 56.6545C193.114 54.436 194.661 52.8037 196.716 52.8037Z" fill="white"/>
<path d="M202.574 53.8498H201.14C200.986 53.8498 200.915 53.9248 200.915 54.0849V54.5654H199.998V53.5738C199.998 53.0933 200.151 52.9331 200.608 52.9331H205.556C206.016 52.9331 206.17 53.0933 206.17 53.5738V54.5654H205.263V54.0815C205.268 54.0504 205.266 54.0186 205.256 53.9885C205.247 53.9585 205.231 53.931 205.209 53.9082C205.187 53.8855 205.16 53.868 205.131 53.8573C205.101 53.8466 205.069 53.8429 205.038 53.8464H203.593V60.4575H202.571L202.574 53.8498Z" fill="white"/>
<path d="M207.311 54.0818C207.316 54.0507 207.314 54.0188 207.305 53.9888C207.295 53.9587 207.279 53.9312 207.257 53.9085C207.235 53.8857 207.209 53.8683 207.179 53.8576C207.15 53.8468 207.118 53.8431 207.087 53.8466H206.65V52.9299H207.673C208.129 52.9299 208.324 53.131 208.324 53.6115V57.7383C208.324 58.1677 208.262 58.8152 208.262 58.8152H208.283C208.283 58.8152 208.668 58.1336 208.923 57.7281L212.058 52.9299H213.057V59.3059C213.053 59.3369 213.056 59.3684 213.065 59.3982C213.075 59.4279 213.091 59.4551 213.113 59.4777C213.134 59.5003 213.161 59.5178 213.19 59.5287C213.219 59.5397 213.251 59.5439 213.282 59.541H213.718V60.4577H212.696C212.229 60.4577 212.035 60.2567 212.035 59.7762V55.6425C212.035 55.2268 212.096 54.5452 212.096 54.5452H212.076C212.076 54.5452 211.735 55.2268 211.466 55.6425L208.31 60.4612H207.288L207.311 54.0818Z" fill="white"/>
<path d="M30.0211 84.0702L29.6155 83.7737C29.4554 83.6544 13.3911 71.7919 5.78827 57.6496C-1.81451 43.5073 0.223353 12.2646 0.315363 10.9629L0.34944 10.4721L30.0211 0L30.246 0.0817836L59.6927 10.4619L59.7268 10.9526C59.8188 12.2715 61.8839 43.4664 54.2539 57.6564C46.6238 71.8464 30.5936 83.6613 30.4232 83.7805L30.0211 84.0702ZM1.69211 11.5422C1.45697 15.6315 0.10067 44.0661 7.01508 56.9271C13.7932 69.536 27.5027 80.3319 30.0211 82.2641C32.5599 80.3387 46.2456 69.5326 53.0237 56.9271C59.9415 44.0627 58.5852 15.6213 58.35 11.5422L30.0211 1.54713L1.69211 11.5422Z" fill="white"/>
<path d="M7.95588 42.1715C7.96248 42.1309 7.95958 42.0894 7.9474 42.0501C7.93522 42.0108 7.9141 41.9749 7.8857 41.9452C7.85729 41.9155 7.82238 41.8928 7.78371 41.8788C7.74503 41.8649 7.70365 41.8601 7.66281 41.8648H7.08008V40.6687H8.44319C9.04297 40.6687 9.29514 40.9345 9.29514 41.5615V44.8023H10.188C10.3356 44.826 10.4868 44.8064 10.6235 44.7459C10.7602 44.6855 10.8764 44.5867 10.9581 44.4615L13.0437 40.6619H14.5329L12.2599 44.7512C12.1394 45.0061 11.9566 45.2264 11.7283 45.3919V45.4191C11.7283 45.4191 11.9941 45.4907 12.2599 46.0325L13.6707 48.9837C13.8036 49.2768 14.0115 49.304 14.3523 49.304H14.5772V50.5002H13.8445C13.1153 50.5002 12.8222 50.4047 12.5428 49.7641L10.9207 46.3563C10.7605 46.0359 10.4674 45.9951 10.0823 45.9951H9.28492V50.5036H7.95588V42.1715Z" fill="white"/>
<path d="M16.4785 48.9701C16.743 49.2291 17.0935 49.3819 17.4633 49.3995C18.0324 49.3995 18.288 49.011 18.5266 48.3021L15.6129 42.1681C15.586 42.075 15.5281 41.9938 15.4487 41.9381C15.3694 41.8823 15.2735 41.8553 15.1767 41.8614H14.9177V40.6653H15.7288C16.3524 40.6653 16.5398 40.8595 16.8056 41.4729L18.7072 45.719C18.9832 46.3324 19.1979 46.9288 19.1979 46.9288H19.2252C19.2252 46.9288 19.3853 46.4006 19.6239 45.719L21.0926 41.4729C21.3176 40.8186 21.5322 40.6653 22.1968 40.6653H22.9124V41.8614H22.7011C22.6028 41.8461 22.5022 41.8676 22.4187 41.9216C22.3351 41.9756 22.2743 42.0585 22.2479 42.1545L19.6886 48.9258C19.3479 49.8152 18.7719 50.6637 17.6167 50.6637C16.9698 50.6498 16.3484 50.4085 15.8617 49.9822L16.4785 48.9701Z" fill="white"/>
<path d="M24.3509 41.8648H23.4854V40.6687H30.7848C31.3846 40.6687 31.6368 40.9345 31.6368 41.5615V48.9939C31.6316 49.0343 31.6354 49.0753 31.6481 49.1139C31.6608 49.1526 31.6819 49.1879 31.71 49.2173C31.7381 49.2467 31.7725 49.2695 31.8105 49.2839C31.8485 49.2983 31.8893 49.304 31.9299 49.3006H32.499V50.4968H31.1699C30.5599 50.4968 30.3078 50.2344 30.3078 49.6073V42.1715C30.3136 42.1311 30.3102 42.0898 30.2978 42.0508C30.2854 42.0119 30.2642 41.9763 30.236 41.9467C30.2077 41.9172 30.1731 41.8944 30.1348 41.8802C30.0964 41.8661 30.0554 41.8608 30.0147 41.8648H25.68V50.4968H24.3509V41.8648Z" fill="white"/>
<path d="M34.2674 42.1715C34.274 42.1309 34.2711 42.0894 34.259 42.0501C34.2468 42.0109 34.2257 41.9749 34.1973 41.9452C34.1689 41.9155 34.1339 41.8928 34.0953 41.8788C34.0566 41.8649 34.0152 41.8601 33.9744 41.8648H33.4053V40.6687H34.7479C35.3443 40.6687 35.5965 40.9345 35.5965 41.5615V45H40.3674V41.5615C40.3674 40.9345 40.6196 40.6687 41.233 40.6687H42.562V41.8648H41.9895C41.9487 41.8601 41.9073 41.8649 41.8686 41.8788C41.8299 41.8928 41.795 41.9155 41.7666 41.9452C41.7382 41.9749 41.7171 42.0109 41.7049 42.0501C41.6927 42.0894 41.6898 42.1309 41.6964 42.1715V50.4968H40.3674V46.1825H35.5965V50.4968H34.2674V42.1715Z" fill="white"/>
<path d="M48.283 40.6687C50.9036 40.6687 52.9482 42.7815 52.9482 45.5146C52.9482 48.3158 50.9036 50.4968 48.283 50.4968C45.6624 50.4968 43.6279 48.3158 43.6279 45.5146C43.6279 42.7815 45.659 40.6687 48.283 40.6687ZM48.283 49.2325C50.1198 49.2325 51.6124 47.6172 51.6124 45.5146C51.6124 43.4699 50.1198 41.9228 48.283 41.9228C46.4462 41.9228 44.9638 43.4835 44.9638 45.5146C44.9638 47.607 46.4428 49.2325 48.283 49.2325Z" fill="white"/>
<path d="M41.9177 58.5322L30.0688 71.015L18.1279 58.5322H20.1215L30.0688 68.9294L39.931 58.5322H41.9177Z" fill="white"/>
<path d="M13.9154 58.5322L30.0854 75.3735L46.1225 58.5322H48.1194L30.0854 77.4625L11.9219 58.5322H13.9154Z" fill="white"/>
<path d="M24.3271 58.5322H26.3514L30.0522 62.4001L33.719 58.5322H35.716L30.0522 64.489L24.3271 58.5322Z" fill="white"/>
<path d="M30.0213 58.5117L29.4863 57.8063C28.7838 56.9709 27.9031 56.3034 26.9088 55.8529C25.9146 55.4023 24.8321 55.1802 23.7408 55.2028H7.08008V53.7715H23.7305C26.2762 53.7715 28.4708 54.6575 30.0077 56.2796C31.5412 54.6575 33.7392 53.7715 36.2883 53.7715H52.9489V55.2028H36.2985C33.8926 55.288 31.8206 56.1263 30.5563 57.8029L30.0213 58.5117Z" fill="white"/>
<path d="M16.015 29.3548H14.6076V34.1257H16.015V29.3548ZM23.3724 29.3548H21.9616V34.1257H23.3724V29.3548ZM30.7265 29.3548H29.3156V34.1257H30.7265V29.3548ZM38.0805 29.3548H36.6696V34.1257H38.0907L38.0805 29.3548ZM45.4345 29.3548H44.0237V34.1257H45.4345V29.3548ZM18.6424 18.3545V16.3609L30.021 6.91112L41.3997 16.3609V18.3545H42.8105V15.6453L30.021 5.02661L17.2316 15.6453V18.3545H41.3997M5.10327 29.3548V18.3545H54.9388V29.3582H53.528V19.8335H49.0979V24.6044H47.7007V19.8335H41.7575V24.6044H40.3466V19.8335H34.4035V24.6044H32.979V19.8335H27.0494V24.6044H25.6386V19.8335H19.6886V24.6044H18.2812V19.8335H12.338V24.6044H10.9272V19.8335H6.49706V29.3548H5.10327ZM6.51069 29.3548H12.1233C12.1826 28.5408 12.5477 27.7793 13.1455 27.2235C13.7432 26.6677 14.5292 26.3587 15.3454 26.3587C16.1616 26.3587 16.9476 26.6677 17.5453 27.2235C18.143 27.7793 18.5082 28.5408 18.5675 29.3548H19.4399C19.4991 28.5408 19.8643 27.7793 20.462 27.2235C21.0597 26.6677 21.8457 26.3587 22.6619 26.3587C23.4781 26.3587 24.2641 26.6677 24.8618 27.2235C25.4596 27.7793 25.8247 28.5408 25.884 29.3548H26.7973C26.8565 28.5408 27.2217 27.7793 27.8194 27.2235C28.4172 26.6677 29.2031 26.3587 30.0193 26.3587C30.8356 26.3587 31.6215 26.6677 32.2192 27.2235C32.817 27.7793 33.1822 28.5408 33.2414 29.3548H34.1411C34.2003 28.5408 34.5655 27.7793 35.1632 27.2235C35.7609 26.6677 36.5469 26.3587 37.3631 26.3587C38.1793 26.3587 38.9653 26.6677 39.563 27.2235C40.1608 27.7793 40.526 28.5408 40.5852 29.3548H41.5189C41.5782 28.5408 41.9434 27.7793 42.5411 27.2235C43.1388 26.6677 43.9248 26.3587 44.741 26.3587C45.5572 26.3587 46.3432 26.6677 46.9409 27.2235C47.5386 27.7793 47.9038 28.5408 47.9631 29.3548H54.9388V30.3295L52.6249 34.6846V37.2745H51.2141V34.3166L53.0577 30.8406H46.5829V29.7433C46.5936 29.4961 46.5541 29.2493 46.4668 29.0178C46.3796 28.7863 46.2464 28.5748 46.0753 28.3961C45.9041 28.2175 45.6986 28.0753 45.471 27.9781C45.2435 27.881 44.9986 27.8309 44.7512 27.8309C44.5038 27.8309 44.2589 27.881 44.0314 27.9781C43.8038 28.0753 43.5983 28.2175 43.4272 28.3961C43.256 28.5748 43.1228 28.7863 43.0356 29.0178C42.9483 29.2493 42.9089 29.4961 42.9195 29.7433V30.8406H39.205V29.7433C39.2157 29.4961 39.1762 29.2493 39.089 29.0178C39.0017 28.7863 38.8685 28.5748 38.6974 28.3961C38.5263 28.2175 38.3207 28.0753 38.0932 27.9781C37.8656 27.881 37.6208 27.8309 37.3734 27.8309C37.1259 27.8309 36.8811 27.881 36.6535 27.9781C36.426 28.0753 36.2204 28.2175 36.0493 28.3961C35.8782 28.5748 35.745 28.7863 35.6577 29.0178C35.5705 29.2493 35.531 29.4961 35.5417 29.7433V30.8406H31.8612V29.7433C31.8719 29.4961 31.8324 29.2493 31.7452 29.0178C31.6579 28.7863 31.5247 28.5748 31.3536 28.3961C31.1825 28.2175 30.9769 28.0753 30.7494 27.9781C30.5218 27.881 30.277 27.8309 30.0296 27.8309C29.7821 27.8309 29.5373 27.881 29.3097 27.9781C29.0822 28.0753 28.8766 28.2175 28.7055 28.3961C28.5344 28.5748 28.4012 28.7863 28.3139 29.0178C28.2267 29.2493 28.1872 29.4961 28.1979 29.7433V30.8406H24.4936V29.7433C24.5043 29.4961 24.4648 29.2493 24.3775 29.0178C24.2903 28.7863 24.1571 28.5748 23.986 28.3961C23.8148 28.2175 23.6093 28.0753 23.3817 27.9781C23.1542 27.881 22.9093 27.8309 22.6619 27.8309C22.4145 27.8309 22.1696 27.881 21.9421 27.9781C21.7145 28.0753 21.509 28.2175 21.3379 28.3961C21.1667 28.5748 21.0335 28.7863 20.9463 29.0178C20.859 29.2493 20.8196 29.4961 20.8302 29.7433V30.8406H17.1771V29.7433C17.1877 29.4961 17.1483 29.2493 17.061 29.0178C16.9738 28.7863 16.8406 28.5748 16.6694 28.3961C16.4983 28.2175 16.2928 28.0753 16.0652 27.9781C15.8377 27.881 15.5928 27.8309 15.3454 27.8309C15.098 27.8309 14.8531 27.881 14.6256 27.9781C14.398 28.0753 14.1925 28.2175 14.0213 28.3961C13.8502 28.5748 13.717 28.7863 13.6298 29.0178C13.5425 29.2493 13.503 29.4961 13.5137 29.7433V30.8406H6.97756L8.82799 34.3166V37.2882H7.42057V34.6982L5.10327 30.3329V29.3548H6.51069Z" fill="white"/>
</svg>
