<svg width="12" height="17" viewBox="0 0 12 17" fill="none" xmlns="http://www.w3.org/2000/svg">
<path d="M5.9978 8.02422C6.2791 8.02422 6.55764 7.9696 6.81753 7.86348C7.07742 7.75736 7.31356 7.60182 7.51247 7.40573C7.71138 7.20965 7.86916 6.97686 7.97681 6.72067C8.08446 6.46447 8.13987 6.18988 8.13987 5.91258C8.13987 5.35254 7.91419 4.81544 7.51247 4.41943C7.11075 4.02342 6.56591 3.80094 5.9978 3.80094C5.42969 3.80094 4.88484 4.02342 4.48312 4.41943C4.08141 4.81544 3.85573 5.35254 3.85573 5.91258C3.85573 6.18988 3.91113 6.46447 4.01878 6.72067C4.12643 6.97686 4.28422 7.20965 4.48312 7.40573C4.88484 7.80174 5.42969 8.02422 5.9978 8.02422ZM5.9978 0C9.30515 0 11.9956 2.64377 11.9956 5.91258C11.9956 10.347 5.9978 16.8931 5.9978 16.8931C5.9978 16.8931 0 10.347 0 5.91258C0 4.34447 0.631909 2.84058 1.75671 1.73175C2.88152 0.622931 4.40708 0 5.9978 0Z" fill="#943434"/>
</svg>
