<svg width="19" height="19" viewBox="0 0 19 19" fill="none" xmlns="http://www.w3.org/2000/svg">
<mask id="mask0_238_36112" style="mask-type:alpha" maskUnits="userSpaceOnUse" x="0" y="0" width="19" height="19">
<rect width="19" height="19" fill="#D9D9D9"/>
</mask>
<g mask="url(#mask0_238_36112)">
<path d="M9.49954 12.0141C10.3178 12.0141 11.0107 11.7304 11.5781 11.1629C12.145 10.5955 12.4284 9.90262 12.4284 9.08435C12.4284 8.26672 12.145 7.57416 11.5781 7.0067C11.0107 6.43923 10.3178 6.1555 9.49954 6.1555C8.68127 6.1555 7.98841 6.43923 7.42094 7.0067C6.85411 7.57416 6.57069 8.26672 6.57069 9.08435C6.57069 9.91592 6.85411 10.6119 7.42094 11.1724C7.98841 11.7336 8.68127 12.0141 9.49954 12.0141ZM9.49954 11.2218C8.90547 11.2218 8.40071 11.0141 7.98524 10.5986C7.56977 10.1832 7.36204 9.67841 7.36204 9.08435C7.36204 8.49091 7.56977 7.98646 7.98524 7.571C8.40071 7.1549 8.90547 6.94685 9.49954 6.94685C10.0936 6.94685 10.5984 7.1549 11.0138 7.571C11.4293 7.98646 11.637 8.49091 11.637 9.08435C11.637 9.67841 11.4293 10.1832 11.0138 10.5986C10.5984 11.0141 10.0936 11.2218 9.49954 11.2218ZM9.49954 14.2504C7.77117 14.2504 6.20431 13.7821 4.79894 12.8454C3.39357 11.9087 2.34129 10.655 1.64209 9.08435C2.34129 7.51431 3.39674 6.26443 4.80844 5.3347C6.22077 4.40433 7.78447 3.93915 9.49954 3.93915C11.2146 3.93915 12.778 4.40433 14.1897 5.3347C15.602 6.26443 16.6578 7.51431 17.357 9.08435C16.6578 10.655 15.6055 11.9087 14.2001 12.8454C12.7948 13.7821 11.2279 14.2504 9.49954 14.2504Z" fill="white"/>
</g>
</svg>
